Patient4_TMGait_0pt3_01_left_22_EMG.mot
version=1
nRows=33
nColumns=33
inDegrees=no
endheader
time	1LAddLong	2LGlutMax	3LGlutMed	4LIliopsoas	5LSemiMemb	6LBicFemLong	7LRecFem	8LVastMed	9LVastLat	10LGasMed	11LTibAnt	12lTibPost	13LPeroneusLong	14LSol	15LExtDigLong	16LFlexDigLong	17RAddLong	18RGlutMax	19RGlutMed	20RIliopsoas	21RSemiMemb	22RBicFemLong	23RRecFem	24RVastMed	25RVastLat	26RGasMed	27RTibAnt	28RTibPost	29RPeroneusLong	30RSol	31RExtDigLong	32RFlexDigLong
42.525	-0.002441	-0.030365	0.001831	-0.002136	-0.048523	-0.08255	0.052032	0.008698	-0.048676	-0.57816	-0.005341	0.016479	0.017395	0.13092	-0.012665	-0.015106	0.044556	-0.038147	-0.4451	0.007019	-0.56564	-0.084991	-0.13794	-0.053406	0.10178	-0.005341	0.00885	-0.005951	-0.010834	0.031281	-0.001068	-0.006866
42.526	-0.003967	-0.016479	-0.001373	0.000458	-0.033417	-0.040436	0.017548	-0.015411	-0.006714	-0.39978	-0.016785	0.015564	0.12482	0.06134	0.019379	-0.015411	0.055237	-0.042419	-0.35721	-0.064087	-0.3804	-0.1062	-0.053864	-0.056458	0.076447	-0.00885	0.014343	-0.000458	-0.008698	0.007172	0.000763	-0.010681
42.527	0.011444	-0.024414	-0.00412	0.007629	-0.000305	-0.055237	0.014038	-0.012665	-0.024109	-0.3508	-0.047913	0.017242	0.15259	0.14633	0.015564	-0.017548	0.053406	-0.068054	-0.24948	-0.18219	-0.097351	-0.061646	0.003052	-0.086823	0.063934	-0.011444	0.021667	-0.00351	-0.03891	0.017548	-0.003662	-0.001678
42.528	0.021667	-0.031891	-0.032501	0.008392	0.057068	-0.059967	0.019226	-0.009003	-0.030975	-0.28488	-0.024719	0.015869	0.068817	0.12833	0.006866	-0.013885	0.029755	-0.068665	-0.37445	-0.21973	-0.30914	-0.018463	-0.001831	-0.10941	0.019531	-0.008698	0.033112	0.000458	-0.023651	0.015869	-0.007782	-0.005798
42.529	0.017395	0.002289	-0.033112	0.009155	0.055542	-0.062561	0.022888	-0.006104	-0.010834	0.06073	-0.010986	0.007629	0.39307	0.072021	-0.038452	-0.036316	-0.033875	-0.05661	-0.39581	-0.1149	-0.31448	0.027313	-0.028229	0.012817	0.020905	-0.014496	0.023499	-0.00061	0.028839	0.014191	-0.00412	-0.006409
42.53	0.011139	-0.02121	-0.02182	0.016632	0.008698	-0.044403	0.032654	-0.013428	0.005341	0.26382	-0.000153	-0.001831	0.098419	0.30212	-0.014801	0.024719	-0.035706	-0.08316	-0.40146	0.076294	0.025024	-0.004425	-0.057526	0.016174	0.025635	-0.016479	0.010986	0.001526	0.007324	0.056	-0.001221	0.000916
42.531	0.007477	-0.014038	-0.023651	-0.004272	-0.031891	-0.024109	0.059967	-0.000305	-0.021973	0.42465	0.035858	-0.006104	-0.25299	0.23377	0.008087	0.01709	0.005035	-0.028076	-0.37155	0.24353	0.072784	-0.045776	-0.059357	-0.056305	0.02243	-0.021362	0.027313	0.004578	-0.024872	0.031281	-0.003052	-0.006256
42.532	0.003357	-0.015717	-0.046844	0.00885	-0.032196	0.023651	0.050507	-0.008392	-0.034027	0.37689	-0.000153	-0.003204	-0.40329	0.045166	0.041962	-0.019989	-0.005798	-0.015259	-0.2713	0.1239	-0.19119	-0.077362	-0.076141	-0.065918	0.030365	-0.025024	0.030975	0.002594	-0.039825	0.026703	-0.004272	-0.009918
42.533	-0.000763	-0.03952	-0.025024	-0.007019	0.021667	0.000458	0.074615	-0.006409	-0.028534	0.23102	-0.028534	-0.009308	-0.25162	-0.10407	0.039368	-0.008698	0.01297	-0.071259	-0.47211	-0.077209	-0.41107	-0.058746	-0.053406	-0.050812	0.053711	-0.032196	0.023651	0.001984	-0.050201	0.009308	-0.002899	-0.002136
42.534	-0.006866	-0.055695	-0.11627	0.018921	0.093079	0.009918	0.069275	-0.004272	-0.0177	-0.23972	-0.016022	-0.009918	0.066528	-0.20126	0.042725	-0.001831	0.000916	-0.097961	-0.43762	-0.14221	-0.32471	0.000153	-0.009003	-0.022888	0.024414	-0.036774	0.021973	0.002289	0.056	0.021667	-0.003815	-0.010681
42.535	0.005493	-0.029602	-0.078125	0.005798	0.098572	0.020599	0.039978	0.00824	-0.027161	-0.29251	-0.027161	-0.013885	0.48157	-0.28488	0.020752	0.007935	-0.010681	-0.058289	-0.215	-0.090942	-0.063477	0.010834	-0.014496	0.05661	0.044708	-0.021973	0.031738	0.000763	0.1683	0.022888	-0.002594	-0.010834
42.536	0.007172	-0.009308	-0.089722	-0.00473	0.076752	0.036316	0.013123	0.000153	-0.00412	-0.038757	-0.040131	-0.00473	0.11002	-0.12756	-0.006256	0.009918	-0.029602	-0.024109	-0.22095	0.05249	0.087128	0.024567	-0.010376	0.059357	0.046539	-0.023041	0.00412	0.002289	0.20233	0.053864	-0.001526	-0.007782
42.537	0.007782	0.020294	-0.096283	-0.012817	0.036011	0.037842	0.065765	-0.002136	-0.02121	0.10773	-0.019836	-0.002594	0.12375	0.0177	0.10773	0.015259	-0.010529	-0.034485	-0.3244	0.13153	-0.11276	-0.019531	0.059509	-0.018311	0.016632	-0.018768	-0.005646	0.003052	0.09903	0.049438	-0.003052	-0.015259
42.538	0.006714	0.002594	-0.056152	-0.007629	0.023956	0.041351	0.049133	0.006409	-0.040283	0.18082	-0.004425	0.004883	0.094452	0.094299	0.11993	0.001068	0.029297	-0.058899	-0.27924	0.042725	-0.15533	-0.044861	0.12558	-0.10849	-0.008087	-0.02243	0.00351	-0.000305	-0.036926	0.034027	-0.001526	-0.012665
42.539	0.006714	-0.000916	-0.078278	-0.007629	0.015564	0.024261	-0.024567	0.005798	-0.024109	-0.059509	-0.014648	0.011139	0.12573	0.11063	0.056305	-0.001678	0.045776	-0.034485	-0.24078	0.01709	-0.16159	-0.052185	0.10559	-0.12878	-0.042267	0	0.020447	-0.004883	-0.072937	0.046692	-0.003967	-0.007629
42.54	0.004883	0.003662	-0.090027	-0.001831	0.014801	-0.008087	-0.006256	0.005188	-0.00061	-0.16892	-0.007019	0.021515	0.28397	0.1445	0.23911	-0.005646	0.054779	-0.038147	-0.24475	-0.001526	-0.12619	-0.11017	0.066681	-0.18646	-0.091248	0.010986	0.002747	-0.002899	-0.003204	0.080566	-0.001068	-0.002747
42.541	0.004425	0.005035	-0.1355	0.007629	0.01358	0.009308	0.000153	-0.00351	-0.015564	-0.18829	0.023193	0.023956	0.36377	0.30518	0.15518	-0.00473	0.077972	-0.030365	-0.34058	-0.024109	-0.10315	-0.14069	0.017395	-0.2626	-0.11292	0.021362	0.024567	-0.00412	0.16419	0.068817	-0.001831	-0.006409
42.542	0.001678	0.06546	-0.09903	0.010071	0.013275	0.007019	-0.053253	0.010986	-0.028687	-0.22156	0.012512	0.011444	-0.20584	0.19592	-0.11612	-0.00946	0.09079	-0.031433	-0.41031	-0.020447	-0.074921	-0.17914	-0.12421	-0.2356	-0.018311	0.031281	0.041962	-0.008087	0.26306	0.086212	-0.005035	-0.007782
42.543	0.003662	0.057068	-0.012665	0.011597	0.014191	0.018921	-0.027924	0.012207	-0.027008	-0.037079	0.013275	0.000153	-0.34485	0.091095	-0.21866	-0.018311	0.058594	0.040131	-0.33615	0.033569	-0.18066	-0.17548	-0.18997	-0.15213	0.029755	0.037384	0.03891	-0.004578	0.23514	0.082092	-0.00473	0.004578
42.544	-0.002289	0.022888	-0.028992	-0.007782	0.011139	0.018768	-0.002747	-0.001373	-0.006866	0.12924	-0.011139	-0.002136	-0.15595	0.11581	-0.15396	-0.009003	-0.017395	-0.010681	-0.27756	0.05722	-0.48798	0.0177	-0.10574	-0.05249	0.049133	0.041046	0.037079	0.000458	0.008698	0.055542	-0.002899	0.005798
42.545	0.000153	-0.015869	-0.11658	0.001221	-0.014954	0.014191	0.033875	-0.008087	-0.035706	0.2742	0.007172	-0.003662	0.28091	0.093689	-0.14023	0.001526	-0.044708	-0.010529	-0.17334	0.028229	-0.45761	0.12619	0.024261	0.13336	0.088959	0.046234	0.032349	0.005035	-0.19821	0.002747	-0.004883	0.003052
42.546	0.00824	0.000763	-0.10208	0.005035	-0.005341	0.022888	0.010223	-0.00824	0.005188	0.30563	-0.03891	-0.002594	0.20218	0.060272	-0.10178	0.001984	-0.037079	0.006714	-0.25024	0.029755	-0.31693	-0.085754	0.067444	0.06897	0.086975	0.04364	0.007935	-0.002136	-0.33173	-0.008545	-0.004883	-0.010071
42.547	0.004425	0.021973	-0.089417	-0.005951	0.014343	0.024872	0.011749	0.009308	0.022888	0.36835	-0.12909	-0.003052	-0.12482	0.12116	0.035553	0.001221	-0.05188	0.013123	-0.081329	-0.024261	-0.10559	-0.13763	-0.009766	-0.000305	0.085144	0.041656	-0.033264	-0.013123	-0.24429	0.020294	-0.003815	-0.003662
42.548	-0.003357	0.02594	-0.10056	-0.010986	0.006561	-0.015106	-0.002136	0.001068	0.032349	0.066833	-0.17425	0.007629	-0.019531	0.21042	0.26932	-0.002594	-0.099487	-0.038757	-0.053253	-0.045471	0.009003	-0.11124	-0.17288	0.10086	0.12558	0.043335	0.13458	-0.006866	-0.087738	0.078735	-0.000458	-0.004578
42.549	0.002441	0.077209	-0.077972	-0.019379	-0.002747	-0.015411	0.037231	0.006561	-0.007324	-0.26032	-0.087433	0.001984	0.1535	0.13214	0.17227	-0.003357	-0.090179	0.016632	-0.11917	0.007324	-0.10468	-0.091553	-0.1561	0.15915	0.16083	0.03418	0.24826	-0.006714	0.6694	0.054321	-0.003052	-0.016479
42.55	0.007019	0.018311	-0.089722	0.000153	0.005951	-0.020905	0.021057	-0.001526	-0.014648	-0.16266	0.041199	-0.001526	0.13977	0.073547	0.11932	0.01297	-0.051575	-0.000763	-0.012054	0.028076	-0.14526	-0.023041	-0.057068	0.089722	0.17395	0.026245	0.31067	-0.006561	0.5629	0.025024	-0.00061	-0.001984
42.551	-0.000916	0.018463	-0.16357	0.011749	0.014191	0.009918	0.016479	0.000305	-0.002899	0.005035	0.19608	0.007019	-0.24384	0.027313	0.095062	0.003204	-0.03479	0.059052	-0.077972	0.012817	-0.12802	-0.072937	-0.23819	0.103	0.21652	0.016632	-0.1535	-0.005035	-0.010223	0.018463	-0.006561	-0.005035
42.552	-0.000153	-0.006104	-0.27741	0.046234	0.002441	0.054932	0.04715	0.003662	-0.002899	0.094757	0.3627	-0.009766	-0.12924	-0.031738	0.020905	0.001068	-0.029907	0.040436	-0.11917	-0.030975	-0.1358	-0.068207	-0.52811	0.12024	0.27939	0.013275	-0.17792	-0.009003	0.15411	0.024567	-0.003052	-0.006561
42.553	-0.007324	0.045319	-0.24429	0.016937	-0.017242	0.026398	0.030823	-0.006256	0.015259	-0.007782	0.40451	-0.00412	-0.09903	-0.030212	-0.04425	-0.001373	-0.018921	0.033112	-0.22461	-0.036316	-0.1709	-0.085144	-0.5455	0.15091	0.20111	0.00946	0.15381	-0.002747	0.089874	0.10071	-0.00061	0
42.554	0.002594	0.055389	-0.10056	0.007477	-0.020752	0.016327	0.029602	-0.006256	-0.003662	-0.10178	0.21881	0.00412	-0.034637	-0.056763	0.023499	-0.001526	-0.010223	0.069885	-0.22446	-0.032043	-0.20371	-0.079193	-0.35187	0.13123	-0.005188	0.004883	0.38467	-0.006256	-0.075226	0.091858	-0.005798	-0.007629
42.555	-0.002747	0.10574	0.049591	-0.014038	0.040741	-0.011139	-0.003204	-0.013428	0.001526	-0.12512	-0.13565	0.00351	-0.063477	-0.009155	0.006561	0.004425	0.004883	0.099945	-0.076752	-0.11826	-0.24994	-0.083923	-0.15564	0.14404	-0.18768	0.005188	0.23743	-0.009155	0.22461	0.079956	0.000916	-0.008698
42.556	0.000916	0.085602	-0.044861	-0.020294	0.056	-0.029602	0.028229	-0.001984	0.012665	-0.25864	-0.17014	0.000916	-0.17883	-0.031738	-0.050201	-0.002136	-0.00824	0.069427	-0.068817	-0.20294	-0.21896	-0.097351	-0.076447	0.1088	-0.15137	-0.001526	-0.28488	-0.00946	0.29266	0.091553	0.006714	-0.010376
42.557	-0.00824	0.048065	0.032501	-0.015869	0.020599	-0.044708	0.029907	-0.004883	0.003967	-0.38208	-0.22263	0.000153	-0.045624	-0.027618	-0.16129	-0.001526	-0.003204	0.009155	0.000153	-0.26977	-0.15839	-0.064392	-0.037384	0.029144	-0.080566	-0.00885	-0.27786	-0.013275	0.22034	0.060577	0.004578	-0.006256
